<svg width="26" height="26" viewBox="0 0 26 26" fill="none" xmlns="http://www.w3.org/2000/svg">
<g clip-path="url(#clip0_259_2319)">
<path d="M26 13.0791C26 19.5672 21.2398 24.9459 15.0258 25.922V16.8621H18.0472L18.6225 13.1138H15.0258V10.6817C15.0258 9.65577 15.5285 8.65694 17.1383 8.65694H18.7731V5.46544C18.7731 5.46544 17.2889 5.21194 15.8708 5.21194C12.909 5.21194 10.9742 7.00702 10.9742 10.2559V13.1127H7.68192V16.861H10.9742V25.9209C4.76125 24.9438 0 19.5661 0 13.0791C0 5.89985 5.82075 0.0791016 13 0.0791016C20.1792 0.0791016 26 5.89877 26 13.0791Z" fill="#5B86E5"/>
</g>
<defs>
<clipPath id="clip0_259_2319">
<rect width="26" height="26" fill="white"/>
</clipPath>
</defs>
</svg>
