<svg width="26" height="26" viewBox="0 0 26 26" fill="none" xmlns="http://www.w3.org/2000/svg">
<path d="M13.5326 15.4537V11.9015H25.8177C25.9377 12.5201 26 13.2524 26 14.0454C26 16.7104 25.2528 20.0059 22.8423 22.3535C20.4985 24.7314 17.5042 26 13.537 26C6.18312 26 0 20.1641 0 13C0 5.83592 6.18312 0 13.537 0C17.6054 0 20.5029 1.55567 22.68 3.58258L20.1071 6.08833C18.546 4.66158 16.4301 3.55225 13.5326 3.55225C8.16336 3.55225 3.96382 7.76858 3.96382 13C3.96382 18.2314 8.16336 22.4477 13.5326 22.4477C17.015 22.4477 18.9985 21.0849 20.2694 19.8467C21.3001 18.8424 21.9784 17.4081 22.2452 15.4494L13.5326 15.4537Z" fill="#5B86E5"/>
</svg>
