<svg width="12" height="12" viewBox="0 0 12 12" fill="none" xmlns="http://www.w3.org/2000/svg">
<path d="M1.75258 5.91292C1.38889 5.49729 0.757132 5.45517 0.341495 5.81885C-0.0741413 6.18253 -0.116259 6.8143 0.247423 7.22993L1.75258 5.91292ZM4 10L3.24742 10.6585C3.43731 10.8755 3.71164 11 4 11C4.28836 11 4.56269 10.8755 4.75258 10.6585L4 10ZM11.7526 2.6585C12.1163 2.24287 12.0741 1.61111 11.6585 1.24742C11.2429 0.883741 10.6111 0.925859 10.2474 1.3415L11.7526 2.6585ZM0.247423 7.22993L3.24742 10.6585L4.75258 9.3415L1.75258 5.91292L0.247423 7.22993ZM4.75258 10.6585L11.7526 2.6585L10.2474 1.3415L3.24742 9.3415L4.75258 10.6585Z" fill="white"/>
</svg>
