<svg width="390" height="89" viewBox="0 0 390 89" fill="none" xmlns="http://www.w3.org/2000/svg">
<g filter="url(#filter0_ddd_41_2790)">
<path fill-rule="evenodd" clip-rule="evenodd" d="M35 15.8667C35 15.485 35.0196 14.9392 35.047 14.5587C35 10.5333 31.9595 10 31.9595 10H30C21.7157 10 15 17.1634 15 26V58C15 66.8366 21.7157 74 30 74H360C368.284 74 375 66.8366 375 58V26C375 17.1634 368.284 10 360 10H99.9595C96.7816 10 95.9973 13.8572 95.9998 15.8258L96 15.8667C96 33.8343 82.3447 48.4 65.5 48.4C48.6553 48.4 35 33.8343 35 15.8667Z" fill="#F7FEFF"/>
</g>
<defs>
<filter id="filter0_ddd_41_2790" x="-5" y="0" width="400" height="104" filterUnits="userSpaceOnUse" color-interpolation-filters="sRGB">
<feFlood flood-opacity="0" result="BackgroundImageFix"/>
<feColorMatrix in="SourceAlpha" type="matrix" values="0 0 0 0 0 0 0 0 0 0 0 0 0 0 0 0 0 0 127 0" result="hardAlpha"/>
<feOffset dy="10"/>
<feGaussianBlur stdDeviation="10"/>
<feComposite in2="hardAlpha" operator="out"/>
<feColorMatrix type="matrix" values="0 0 0 0 0.717647 0 0 0 0 0.788235 0 0 0 0 0.937255 0 0 0 0.5 0"/>
<feBlend mode="normal" in2="BackgroundImageFix" result="effect1_dropShadow_41_2790"/>
<feColorMatrix in="SourceAlpha" type="matrix" values="0 0 0 0 0 0 0 0 0 0 0 0 0 0 0 0 0 0 127 0" result="hardAlpha"/>
<feOffset dy="4"/>
<feGaussianBlur stdDeviation="4"/>
<feComposite in2="hardAlpha" operator="out"/>
<feColorMatrix type="matrix" values="0 0 0 0 0.717647 0 0 0 0 0.788235 0 0 0 0 0.937255 0 0 0 0.4 0"/>
<feBlend mode="normal" in2="effect1_dropShadow_41_2790" result="effect2_dropShadow_41_2790"/>
<feColorMatrix in="SourceAlpha" type="matrix" values="0 0 0 0 0 0 0 0 0 0 0 0 0 0 0 0 0 0 127 0" result="hardAlpha"/>
<feOffset dy="-2"/>
<feGaussianBlur stdDeviation="2.5"/>
<feComposite in2="hardAlpha" operator="out"/>
<feColorMatrix type="matrix" values="0 0 0 0 0.717647 0 0 0 0 0.788235 0 0 0 0 0.937255 0 0 0 0.25 0"/>
<feBlend mode="normal" in2="effect2_dropShadow_41_2790" result="effect3_dropShadow_41_2790"/>
<feBlend mode="normal" in="SourceGraphic" in2="effect3_dropShadow_41_2790" result="shape"/>
</filter>
</defs>
</svg>
