<svg width="20" height="20" viewBox="0 0 20 20" fill="none" xmlns="http://www.w3.org/2000/svg">
<g clip-path="url(#clip0_41_2817)">
<path d="M20 13.3333V17.5C20 18.163 19.7366 18.7989 19.2678 19.2677C18.7989 19.7366 18.163 20 17.5 20H13.3333C12.1642 19.9988 11.016 19.6901 10.0039 19.1051C8.99172 18.52 8.15121 17.6791 7.56666 16.6666C8.19489 16.6621 8.82098 16.5929 9.435 16.46C9.90262 17.0447 10.4958 17.5166 11.1707 17.8409C11.8455 18.1652 12.5846 18.3335 13.3333 18.3333H17.5C17.721 18.3333 17.933 18.2455 18.0893 18.0892C18.2455 17.9329 18.3333 17.721 18.3333 17.5V13.3333C18.3331 12.5843 18.1643 11.845 17.8395 11.1702C17.5146 10.4953 17.042 9.90226 16.4567 9.43496C16.5907 8.82106 16.6611 8.19497 16.6667 7.56663C17.6791 8.15117 18.5201 8.99168 19.1051 10.0038C19.6902 11.016 19.9988 12.1642 20 13.3333ZM14.9808 8.04246C15.0588 6.96883 14.9047 5.891 14.529 4.88221C14.1534 3.87343 13.565 2.95732 12.8038 2.19615C12.0426 1.43498 11.1265 0.846579 10.1178 0.470933C9.10896 0.0952864 8.03113 -0.0588029 6.9575 0.0191351C5.05493 0.236412 3.29744 1.14178 2.01598 2.56475C0.734522 3.98772 0.0175226 5.83011 0 7.74496L0 11.945C0 14.055 1.25583 15 2.5 15H7.25C9.16567 14.9835 11.0092 14.267 12.4332 12.9854C13.8571 11.7039 14.7633 9.94581 14.9808 8.04246V8.04246ZM11.625 3.3758C12.2166 3.96872 12.674 4.6818 12.9661 5.46679C13.2582 6.25178 13.3784 7.09036 13.3183 7.9258C13.1405 9.41219 12.4254 10.7823 11.3078 11.7782C10.1901 12.7742 8.74698 13.3272 7.25 13.3333H2.5C1.72667 13.3333 1.66667 12.2708 1.66667 11.945V7.74496C1.67361 6.24861 2.22721 4.80639 3.22326 3.6897C4.21932 2.57301 5.58916 1.85886 7.075 1.68163C7.21333 1.67163 7.35166 1.66663 7.49 1.66663C8.25772 1.66592 9.01806 1.8165 9.72757 2.10977C10.4371 2.40303 11.0818 2.83324 11.625 3.3758Z" fill="#5B86E5"/>
</g>
<defs>
<clipPath id="clip0_41_2817">
<rect width="20" height="20" fill="white"/>
</clipPath>
</defs>
</svg>
