<svg width="30" height="30" viewBox="0 0 30 30" fill="none" xmlns="http://www.w3.org/2000/svg">
<g clip-path="url(#clip0_41_2810)">
<path d="M15 0C12.0333 0 9.13319 0.879735 6.66645 2.52796C4.19972 4.17618 2.27713 6.51886 1.14181 9.25975C0.00649929 12.0006 -0.290551 15.0166 0.288228 17.9264C0.867006 20.8361 2.29562 23.5088 4.3934 25.6066C6.49119 27.7044 9.16394 29.133 12.0737 29.7118C14.9834 30.2906 17.9994 29.9935 20.7403 28.8582C23.4811 27.7229 25.8238 25.8003 27.472 23.3336C29.1203 20.8668 30 17.9667 30 15C29.9957 11.0231 28.414 7.21026 25.6019 4.39815C22.7897 1.58604 18.9769 0.00430135 15 0V0ZM27.5 15C27.5015 17.4496 26.7787 19.845 25.4225 21.885L23.9325 20.3938C23.8157 20.2766 23.75 20.1179 23.75 19.9525V18.75C23.75 17.7554 23.3549 16.8016 22.6517 16.0983C21.9484 15.3951 20.9946 15 20 15H16.25C15.9185 15 15.6005 14.8683 15.3661 14.6339C15.1317 14.3995 15 14.0815 15 13.75V13.125C15 12.9592 15.0659 12.8003 15.1831 12.6831C15.3003 12.5658 15.4592 12.5 15.625 12.5C16.4538 12.5 17.2487 12.1708 17.8347 11.5847C18.4208 10.9987 18.75 10.2038 18.75 9.375V8.125C18.75 7.95924 18.8159 7.80027 18.9331 7.68306C19.0503 7.56585 19.2092 7.5 19.375 7.5H21.0988C21.9267 7.49764 22.7204 7.16886 23.3075 6.585L23.7788 6.11375C24.9577 7.27385 25.894 8.65705 26.5329 10.1827C27.1718 11.7084 27.5005 13.346 27.5 15ZM2.56126 16.2038L6.50876 20.1513C6.85613 20.5009 7.26948 20.778 7.72482 20.9666C8.18015 21.1553 8.66841 21.2516 9.16126 21.25H12.5C12.8315 21.25 13.1495 21.3817 13.3839 21.6161C13.6183 21.8505 13.75 22.1685 13.75 22.5V27.4362C10.8752 27.1428 8.1905 25.864 6.15117 23.8167C4.11183 21.7694 2.84348 19.0796 2.56126 16.2038ZM16.25 27.4362V22.5C16.25 21.5054 15.8549 20.5516 15.1517 19.8483C14.4484 19.1451 13.4946 18.75 12.5 18.75H9.16126C8.99691 18.7501 8.83415 18.7178 8.68229 18.655C8.53043 18.5922 8.39245 18.5 8.27626 18.3837L2.70376 12.8112C3.06148 10.7778 3.91843 8.86487 5.19773 7.24423C6.47702 5.62358 8.13864 4.34588 10.0335 3.52577C11.9284 2.70565 13.9972 2.36877 16.0543 2.54535C18.1115 2.72193 20.0926 3.40646 21.82 4.5375L21.54 4.8175C21.4223 4.93354 21.264 4.99902 21.0988 5H19.375C18.5462 5 17.7514 5.32924 17.1653 5.91529C16.5792 6.50134 16.25 7.2962 16.25 8.125V9.375C16.25 9.54076 16.1842 9.69973 16.0669 9.81694C15.9497 9.93415 15.7908 10 15.625 10C14.7962 10 14.0013 10.3292 13.4153 10.9153C12.8292 11.5013 12.5 12.2962 12.5 13.125V13.75C12.5 14.7446 12.8951 15.6984 13.5984 16.4017C14.3016 17.1049 15.2554 17.5 16.25 17.5H20C20.3315 17.5 20.6495 17.6317 20.8839 17.8661C21.1183 18.1005 21.25 18.4185 21.25 18.75V19.9525C21.2524 20.7805 21.5811 21.5742 22.165 22.1613L23.8363 23.8325C21.8006 25.8752 19.1195 27.1488 16.25 27.4362Z" fill="#149AA4"/>
</g>
<defs>
<clipPath id="clip0_41_2810">
<rect width="30" height="30" fill="white"/>
</clipPath>
</defs>
</svg>
