<svg width="30" height="30" viewBox="0 0 30 30" fill="none" xmlns="http://www.w3.org/2000/svg">
<g clip-path="url(#clip0_41_2793)">
<path d="M2.5 13.75H16.25C16.913 13.75 17.5489 13.4866 18.0178 13.0178C18.4866 12.5489 18.75 11.913 18.75 11.25V2.5C18.75 1.83696 18.4866 1.20107 18.0178 0.732233C17.5489 0.263392 16.913 0 16.25 0L2.5 0C1.83696 0 1.20107 0.263392 0.732233 0.732233C0.263392 1.20107 0 1.83696 0 2.5L0 11.25C0 11.913 0.263392 12.5489 0.732233 13.0178C1.20107 13.4866 1.83696 13.75 2.5 13.75ZM2.5 2.5H16.25V11.25H2.5V2.5Z" fill="#F7F9FF"/>
<path d="M27.5 0H23.75C23.087 0 22.4511 0.263392 21.9822 0.732233C21.5134 1.20107 21.25 1.83696 21.25 2.5V11.25C21.25 11.913 21.5134 12.5489 21.9822 13.0178C22.4511 13.4866 23.087 13.75 23.75 13.75H27.5C28.163 13.75 28.7989 13.4866 29.2678 13.0178C29.7366 12.5489 30 11.913 30 11.25V2.5C30 1.83696 29.7366 1.20107 29.2678 0.732233C28.7989 0.263392 28.163 0 27.5 0V0ZM27.5 11.25H23.75V2.5H27.5V11.25Z" fill="#F7F9FF"/>
<path d="M6.25 16.25H2.5C1.83696 16.25 1.20107 16.5134 0.732233 16.9822C0.263392 17.4511 0 18.087 0 18.75L0 27.5C0 28.163 0.263392 28.7989 0.732233 29.2678C1.20107 29.7366 1.83696 30 2.5 30H6.25C6.91304 30 7.54892 29.7366 8.01776 29.2678C8.4866 28.7989 8.75 28.163 8.75 27.5V18.75C8.75 18.087 8.4866 17.4511 8.01776 16.9822C7.54892 16.5134 6.91304 16.25 6.25 16.25ZM6.25 27.5H2.5V18.75H6.25V27.5Z" fill="#F7F9FF"/>
<path d="M27.5 16.25H13.75C13.087 16.25 12.4511 16.5134 11.9822 16.9822C11.5134 17.4511 11.25 18.087 11.25 18.75V27.5C11.25 28.163 11.5134 28.7989 11.9822 29.2678C12.4511 29.7366 13.087 30 13.75 30H27.5C28.163 30 28.7989 29.7366 29.2678 29.2678C29.7366 28.7989 30 28.163 30 27.5V18.75C30 18.087 29.7366 17.4511 29.2678 16.9822C28.7989 16.5134 28.163 16.25 27.5 16.25ZM27.5 27.5H13.75V18.75H27.5V27.5Z" fill="#F7F9FF"/>
</g>
<defs>
<clipPath id="clip0_41_2793">
<rect width="30" height="30" fill="white"/>
</clipPath>
</defs>
</svg>
