<svg width="20" height="20" viewBox="0 0 20 20" fill="none" xmlns="http://www.w3.org/2000/svg">
<path d="M0 3.75C0 3.05964 0.559644 2.5 1.25 2.5H18.75C19.4404 2.5 20 3.05964 20 3.75V3.75C20 4.44036 19.4404 5 18.75 5H1.25C0.559644 5 0 4.44036 0 3.75V3.75Z" fill="#5B86E5"/>
<path d="M0 10C0 9.30964 0.559644 8.75 1.25 8.75H18.75C19.4404 8.75 20 9.30964 20 10V10C20 10.6904 19.4404 11.25 18.75 11.25H1.25C0.559644 11.25 0 10.6904 0 10V10Z" fill="#5B86E5"/>
<path d="M0 16.25C0 15.5596 0.559644 15 1.25 15H18.75C19.4404 15 20 15.5596 20 16.25V16.25C20 16.9404 19.4404 17.5 18.75 17.5H1.25C0.559644 17.5 0 16.9404 0 16.25V16.25Z" fill="#5B86E5"/>
</svg>
