<svg width="20" height="20" viewBox="0 0 20 20" fill="none" xmlns="http://www.w3.org/2000/svg">
<g clip-path="url(#clip0_41_4608)">
<path d="M12.4999 20C11.0995 19.9989 9.71483 19.7042 8.43534 19.135C7.15585 18.5657 6.00994 17.7345 5.07155 16.695C4.12608 15.6543 3.41273 14.4244 2.97884 13.0869C2.54495 11.7495 2.40043 10.335 2.55488 8.93747C2.80389 6.76248 3.75271 4.72725 5.25852 3.13818C6.76432 1.54911 8.7456 0.492226 10.9041 0.126637C12.2994 -0.0888837 13.7234 -0.0308612 15.0965 0.297471C15.4561 0.389853 15.7845 0.576641 16.0476 0.838505C16.3108 1.10037 16.4992 1.4278 16.5933 1.78691C16.6875 2.14602 16.684 2.52376 16.5832 2.88106C16.4823 3.23835 16.2879 3.56222 16.0199 3.81914C12.2199 7.29081 12.5499 12.6891 16.6924 15.8275C16.9853 16.0574 17.2112 16.3615 17.3467 16.7084C17.4821 17.0552 17.5222 17.432 17.4626 17.7995C17.4031 18.1671 17.2461 18.512 17.008 18.7983C16.77 19.0846 16.4596 19.3018 16.109 19.4275C14.9439 19.8082 13.7257 20.0014 12.4999 20ZM12.5632 1.66664C12.0953 1.66551 11.6281 1.7009 11.1657 1.77247C9.36865 2.0764 7.71893 2.95584 6.46489 4.27842C5.21085 5.60099 4.42035 7.29512 4.21238 9.10581C4.08239 10.2725 4.20219 11.4535 4.56383 12.5704C4.92548 13.6872 5.52068 14.7143 6.30988 15.5833C7.46516 16.8164 8.95345 17.6877 10.5942 18.0915C12.2349 18.4953 13.9576 18.4143 15.5532 17.8583C15.622 17.8325 15.6827 17.7891 15.7293 17.7322C15.7759 17.6754 15.8066 17.6073 15.8183 17.5348C15.8301 17.4623 15.8225 17.388 15.7963 17.3194C15.77 17.2508 15.7262 17.1903 15.6691 17.1441C10.7282 13.4125 10.3357 6.73914 14.8791 2.6033C14.9312 2.5549 14.9688 2.49291 14.9876 2.42431C15.0065 2.35571 15.0058 2.28322 14.9857 2.21497C14.9684 2.14254 14.9316 2.07623 14.8793 2.0232C14.827 1.97018 14.7612 1.93246 14.6891 1.91414C13.993 1.74624 13.2792 1.66314 12.5632 1.66664Z" fill="#5B86E5"/>
</g>
<defs>
<clipPath id="clip0_41_4608">
<rect width="20" height="20" fill="white"/>
</clipPath>
</defs>
</svg>
