<svg width="30" height="30" viewBox="0 0 30 30" fill="none" xmlns="http://www.w3.org/2000/svg">
<g clip-path="url(#clip0_41_2814)">
<path d="M28.1937 17.0775L25.8187 8.5325C25.1226 6.02916 23.6097 3.83035 21.5204 2.28558C19.4312 0.740811 16.8855 -0.0612725 14.2881 0.00682766C11.6906 0.0749278 9.1905 1.0093 7.18506 2.66143C5.17963 4.31356 3.78398 6.58862 3.21998 9.125L1.38123 17.3937C1.17812 18.3074 1.18282 19.255 1.39497 20.1666C1.60712 21.0783 2.02131 21.9306 2.60696 22.6607C3.1926 23.3908 3.93475 23.9801 4.77862 24.3849C5.62248 24.7898 6.54651 25 7.48248 25H8.87498C9.16188 26.4129 9.92839 27.6831 11.0447 28.5955C12.1609 29.5078 13.5583 30.0063 15 30.0063C16.4417 30.0063 17.839 29.5078 18.9553 28.5955C20.0716 27.6831 20.8381 26.4129 21.125 25H22.1725C23.136 25.0001 24.0865 24.7774 24.9497 24.3493C25.8129 23.9212 26.5654 23.2994 27.1485 22.5323C27.7316 21.7653 28.1295 20.8738 28.311 19.9275C28.4925 18.9813 28.4528 18.0059 28.195 17.0775H28.1937ZM15 27.5C14.2272 27.4968 13.4742 27.2549 12.8441 26.8074C12.214 26.3599 11.7376 25.7286 11.48 25H18.52C18.2624 25.7286 17.7859 26.3599 17.1559 26.8074C16.5258 27.2549 15.7728 27.4968 15 27.5ZM25.1575 21.0187C24.8092 21.4808 24.3579 21.8553 23.8395 22.1124C23.3211 22.3696 22.7499 22.5023 22.1712 22.5H7.48248C6.92096 22.4999 6.36663 22.3737 5.86041 22.1307C5.35418 21.8877 4.90899 21.5342 4.55768 21.0961C4.20638 20.6581 3.95793 20.1467 3.83068 19.5998C3.70343 19.0529 3.70063 18.4844 3.82248 17.9362L5.65998 9.66625C6.10292 7.674 7.19911 5.887 8.7743 4.58931C10.3495 3.29161 12.3133 2.55771 14.3535 2.50426C16.3936 2.45081 18.3931 3.08089 20.0341 4.29433C21.6751 5.50777 22.8633 7.23493 23.41 9.20125L25.785 17.7462C25.9419 18.303 25.9669 18.8886 25.858 19.4567C25.7491 20.0247 25.5092 20.5596 25.1575 21.0187Z" fill="#149AA4"/>
</g>
<defs>
<clipPath id="clip0_41_2814">
<rect width="30" height="30" fill="white"/>
</clipPath>
</defs>
</svg>
