<svg width="30" height="30" viewBox="0 0 30 30" fill="none" xmlns="http://www.w3.org/2000/svg">
<g clip-path="url(#clip0_73_621)">
<path d="M23.75 30H6.25C4.59301 29.998 3.00445 29.3389 1.83277 28.1672C0.661102 26.9956 0.00198482 25.407 0 23.75L0 6.25C0.00198482 4.59301 0.661102 3.00445 1.83277 1.83277C3.00445 0.661102 4.59301 0.00198482 6.25 0L23.75 0C25.407 0.00198482 26.9956 0.661102 28.1672 1.83277C29.3389 3.00445 29.998 4.59301 30 6.25V23.75C29.998 25.407 29.3389 26.9956 28.1672 28.1672C26.9956 29.3389 25.407 29.998 23.75 30V30ZM6.25 2.5C5.25544 2.5 4.30161 2.89509 3.59835 3.59835C2.89509 4.30161 2.5 5.25544 2.5 6.25V23.75C2.5 24.7446 2.89509 25.6984 3.59835 26.4017C4.30161 27.1049 5.25544 27.5 6.25 27.5H23.75C24.7446 27.5 25.6984 27.1049 26.4017 26.4017C27.1049 25.6984 27.5 24.7446 27.5 23.75V6.25C27.5 5.25544 27.1049 4.30161 26.4017 3.59835C25.6984 2.89509 24.7446 2.5 23.75 2.5H6.25ZM11.6775 21.2562C11.1564 21.2545 10.645 21.1152 10.195 20.8525C9.75043 20.5981 9.38144 20.2301 9.12579 19.7862C8.87014 19.3423 8.737 18.8385 8.74 18.3263V11.6737C8.73958 11.1614 8.87389 10.658 9.12948 10.214C9.38506 9.76998 9.75292 9.40099 10.1961 9.14405C10.6394 8.8871 11.1424 8.75124 11.6547 8.75009C12.167 8.74894 12.6706 8.88255 13.115 9.1375L19.7125 12.4312C20.1708 12.6786 20.5546 13.0441 20.824 13.4897C21.0935 13.9354 21.239 14.445 21.2452 14.9657C21.2514 15.4865 21.1183 15.9994 20.8596 16.4514C20.6009 16.9034 20.226 17.2779 19.7738 17.5363L13.0537 20.895C12.6346 21.1341 12.16 21.2587 11.6775 21.2562V21.2562ZM11.6463 11.2563C11.5774 11.2562 11.5097 11.2743 11.45 11.3087C11.3852 11.3448 11.3314 11.3978 11.2944 11.4621C11.2574 11.5264 11.2386 11.5996 11.24 11.6737V18.3263C11.2404 18.3993 11.2598 18.471 11.2964 18.5343C11.3329 18.5976 11.3852 18.6503 11.4483 18.6873C11.5113 18.7242 11.5829 18.7441 11.6559 18.745C11.729 18.7459 11.801 18.7278 11.865 18.6925L18.585 15.3325C18.635 15.2934 18.6748 15.2426 18.701 15.1847C18.7271 15.1268 18.7388 15.0634 18.735 15C18.7366 14.9257 18.7177 14.8523 18.6804 14.7879C18.6432 14.7236 18.589 14.6707 18.5238 14.635L11.9313 11.3412C11.8453 11.2885 11.747 11.2592 11.6463 11.2563V11.2563Z" fill="#149AA4"/>
</g>
<defs>
<clipPath id="clip0_73_621">
<rect width="30" height="30" fill="white"/>
</clipPath>
</defs>
</svg>
