<svg width="20" height="20" viewBox="0 0 20 20" fill="none" xmlns="http://www.w3.org/2000/svg">
<g clip-path="url(#clip0_287_1780)">
<path d="M19.1685 17.9866H19.3576L18.9951 17.4383C19.2168 17.4383 19.3343 17.2974 19.336 17.1249C19.336 17.1183 19.336 17.1108 19.3351 17.1041C19.3351 16.8691 19.1935 16.7566 18.9026 16.7566H18.4326V17.9866H18.6093V17.4508H18.8268L19.1685 17.9866ZM18.8143 17.3116H18.6093V16.8958H18.8693C19.0035 16.8958 19.1568 16.9174 19.1568 17.0933C19.1568 17.2949 19.0018 17.3116 18.8135 17.3116" fill="#5B86E5"/>
<path d="M14.4092 15.8941H11.9033V11.97C11.9033 11.0341 11.8867 9.82997 10.6 9.82997C9.295 9.82997 9.095 10.8491 9.095 11.9025V15.8941H6.59V7.82414H8.99583V8.92664H9.02916C9.52 8.08831 10.4317 7.58747 11.4025 7.62331C13.9425 7.62331 14.41 9.29414 14.41 11.4666L14.4092 15.8941ZM3.7625 6.72081C2.95917 6.72081 2.30833 6.06997 2.30833 5.26664C2.30833 4.46331 2.95917 3.81248 3.7625 3.81248C4.56583 3.81248 5.21666 4.46331 5.21666 5.26664C5.21666 6.06997 4.56583 6.72081 3.7625 6.72081ZM5.015 15.8941H2.50667V7.82414H5.015V15.8941ZM15.6583 1.48581H1.2475C0.566666 1.47831 0.00833333 2.02414 0 2.70498V17.175C0.00833333 17.8566 0.566666 18.4025 1.2475 18.395H15.6583C16.3408 18.4033 16.9017 17.8575 16.9108 17.175V2.70414C16.9008 2.02164 16.34 1.47581 15.6583 1.48498" fill="#5B86E5"/>
<path d="M18.8361 16.2091C18.1994 16.2149 17.6877 16.7366 17.6944 17.3733C17.7002 18.0099 18.2219 18.5216 18.8586 18.515C19.4952 18.5091 20.0069 17.9874 20.0002 17.3508C19.9944 16.7224 19.4861 16.2149 18.8586 16.2091H18.8361ZM18.8627 18.3824C18.3044 18.3916 17.8177 17.9474 17.8086 17.3891C17.7994 16.8308 18.2444 16.3708 18.8027 16.3616C19.3611 16.3524 19.8211 16.7974 19.8302 17.3558C19.8302 17.3616 19.8302 17.3666 19.8302 17.3724C19.8419 17.9183 19.4086 18.3708 18.8627 18.3824H18.8369Z" fill="#5B86E5"/>
</g>
<defs>
<clipPath id="clip0_287_1780">
<rect width="20" height="20" fill="white"/>
</clipPath>
</defs>
</svg>
