<svg width="20" height="20" viewBox="0 0 20 20" fill="none" xmlns="http://www.w3.org/2000/svg">
<g clip-path="url(#clip0_287_1791)">
<path d="M7.5 10C8.4889 10 9.4556 9.70675 10.2778 9.15735C11.1001 8.60794 11.741 7.82705 12.1194 6.91342C12.4978 5.99979 12.5968 4.99445 12.4039 4.02455C12.211 3.05464 11.7348 2.16373 11.0355 1.46447C10.3363 0.765206 9.44535 0.289002 8.47545 0.0960758C7.50554 -0.0968502 6.50021 0.00216643 5.58658 0.380604C4.67295 0.759043 3.89206 1.3999 3.34265 2.22215C2.79324 3.0444 2.5 4.01109 2.5 5C2.50132 6.32568 3.02853 7.59668 3.96593 8.53407C4.90332 9.47147 6.17432 9.99868 7.5 10ZM7.5 1.66667C8.15927 1.66667 8.80373 1.86216 9.3519 2.22844C9.90006 2.59471 10.3273 3.1153 10.5796 3.72439C10.8319 4.33348 10.8979 5.0037 10.7693 5.6503C10.6407 6.2969 10.3232 6.89085 9.85702 7.35702C9.39084 7.8232 8.7969 8.14067 8.1503 8.26928C7.50369 8.3979 6.83347 8.33189 6.22439 8.0796C5.6153 7.82731 5.0947 7.40006 4.72843 6.8519C4.36216 6.30374 4.16667 5.65927 4.16667 5C4.16667 4.11595 4.51785 3.2681 5.14298 2.64298C5.7681 2.01786 6.61594 1.66667 7.5 1.66667V1.66667Z" fill="#5B86E5"/>
<path d="M7.5 11.6666C5.51162 11.6691 3.60537 12.46 2.19938 13.866C0.793381 15.272 0.0024258 17.1782 0 19.1666C0 19.3876 0.0877973 19.5996 0.244078 19.7559C0.400358 19.9122 0.612319 20 0.833333 20C1.05435 20 1.26631 19.9122 1.42259 19.7559C1.57887 19.5996 1.66667 19.3876 1.66667 19.1666C1.66667 17.6195 2.28125 16.1358 3.37521 15.0418C4.46917 13.9479 5.9529 13.3333 7.5 13.3333C9.04709 13.3333 10.5308 13.9479 11.6248 15.0418C12.7187 16.1358 13.3333 17.6195 13.3333 19.1666C13.3333 19.3876 13.4211 19.5996 13.5774 19.7559C13.7337 19.9122 13.9456 20 14.1667 20C14.3877 20 14.5996 19.9122 14.7559 19.7559C14.9122 19.5996 15 19.3876 15 19.1666C14.9976 17.1782 14.2066 15.272 12.8006 13.866C11.3946 12.46 9.48837 11.6691 7.5 11.6666V11.6666Z" fill="#5B86E5"/>
<path d="M18.3333 6.5625C17.8696 6.5856 17.4338 6.79147 17.1215 7.13506C16.8091 7.47864 16.6456 7.93197 16.6667 8.39583C16.6877 7.93197 16.5242 7.47864 16.2119 7.13506C15.8995 6.79147 15.4638 6.5856 15 6.5625C14.5362 6.5856 14.1005 6.79147 13.7882 7.13506C13.4758 7.47864 13.3123 7.93197 13.3334 8.39583C13.3334 9.8375 15.2133 11.5267 16.15 12.2783C16.2966 12.3957 16.4788 12.4597 16.6667 12.4597C16.8545 12.4597 17.0367 12.3957 17.1833 12.2783C18.12 11.5283 20 9.8375 20 8.39583C20.0211 7.93197 19.8575 7.47864 19.5452 7.13506C19.2328 6.79147 18.7971 6.5856 18.3333 6.5625V6.5625Z" fill="#5B86E5"/>
</g>
<defs>
<clipPath id="clip0_287_1791">
<rect width="20" height="20" fill="white"/>
</clipPath>
</defs>
</svg>
