<svg width="20" height="20" viewBox="0 0 20 20" fill="none" xmlns="http://www.w3.org/2000/svg">
<g clip-path="url(#clip0_287_1787)">
<path d="M17.9525 5.92004C17.9642 6.09587 17.9642 6.27254 17.9642 6.45004C17.9642 11.8725 13.8358 18.125 6.28916 18.125V18.1217C4.06 18.125 1.87667 17.4867 0 16.2825C0.324167 16.3217 0.65 16.3409 0.976666 16.3417C2.825 16.3434 4.62 15.7234 6.0725 14.5817C4.31667 14.5484 2.77667 13.4034 2.23917 11.7317C2.85417 11.85 3.4875 11.8259 4.09166 11.6617C2.17667 11.275 0.8 9.59253 0.8 7.6392C0.8 7.6217 0.8 7.6042 0.8 7.58754C1.37083 7.90587 2.00917 8.0817 2.6625 8.10087C0.859166 6.8967 0.3025 4.49837 1.39167 2.62337C3.475 5.1867 6.54916 6.74504 9.84833 6.91087C9.5175 5.48587 9.97 3.99254 11.035 2.99004C12.6875 1.43587 15.2867 1.51587 16.8408 3.16837C17.76 2.98754 18.6408 2.65004 19.4467 2.17254C19.14 3.12254 18.4992 3.92921 17.6425 4.44254C18.4567 4.34504 19.2508 4.12754 20 3.79587C19.4492 4.62004 18.7558 5.3392 17.9525 5.92004Z" fill="#5B86E5"/>
</g>
<defs>
<clipPath id="clip0_287_1787">
<rect width="20" height="20" fill="white"/>
</clipPath>
</defs>
</svg>
