<svg width="20" height="20" viewBox="0 0 20 20" fill="none" xmlns="http://www.w3.org/2000/svg">
<path d="M8.35771 1.58875C8.91868 1.04607 9.19917 0.774725 9.51818 0.66652C9.83065 0.560534 10.1693 0.560534 10.4818 0.66652C10.8008 0.774725 11.0813 1.04607 11.6423 1.58875V1.58875C11.9386 1.87542 12.0868 2.01876 12.259 2.11455C12.4286 2.20884 12.6148 2.26934 12.8074 2.29271C13.003 2.31646 13.2071 2.28759 13.6154 2.22984V2.22984C14.3882 2.12053 14.7746 2.06588 15.0963 2.16585C15.4114 2.26377 15.6854 2.46285 15.8759 2.73226C16.0704 3.00731 16.1378 3.3917 16.2726 4.16047V4.16047C16.3439 4.56657 16.3795 4.76962 16.4625 4.94836C16.5443 5.12429 16.6594 5.2827 16.8014 5.4148C16.9458 5.54901 17.1279 5.64563 17.4921 5.83887V5.83887C18.1816 6.20469 18.5263 6.3876 18.7278 6.65756C18.9251 6.92198 19.0298 7.24411 19.0256 7.57403C19.0212 7.91087 18.8498 8.26148 18.5071 8.96269V8.96269C18.326 9.3331 18.2355 9.51831 18.1976 9.71172C18.1603 9.9021 18.1603 10.0979 18.1976 10.2883C18.2355 10.4817 18.326 10.6669 18.5071 11.0373V11.0373C18.8498 11.7385 19.0212 12.0891 19.0256 12.426C19.0298 12.7559 18.9251 13.078 18.7278 13.3424C18.5263 13.6124 18.1816 13.7953 17.4921 14.1611V14.1611C17.1279 14.3544 16.9458 14.451 16.8014 14.5852C16.6594 14.7173 16.5443 14.8757 16.4625 15.0516C16.3795 15.2304 16.3439 15.4334 16.2726 15.8395V15.8395C16.1378 16.6083 16.0704 16.9927 15.8759 17.2677C15.6854 17.5371 15.4114 17.7362 15.0963 17.8341C14.7746 17.9341 14.3882 17.8795 13.6154 17.7702V17.7702C13.2071 17.7124 13.003 17.6835 12.8074 17.7073C12.6148 17.7307 12.4286 17.7912 12.259 17.8854C12.0868 17.9812 11.9386 18.1246 11.6423 18.4112V18.4112C11.0813 18.9539 10.8008 19.2253 10.4818 19.3335C10.1693 19.4395 9.83065 19.4395 9.51818 19.3335C9.19917 19.2253 8.91868 18.9539 8.35771 18.4112V18.4112C8.06138 18.1246 7.91321 17.9812 7.74097 17.8854C7.57144 17.7912 7.38522 17.7307 7.19264 17.7073C6.99699 17.6835 6.79287 17.7124 6.38463 17.7702V17.7702C5.61181 17.8795 5.22541 17.9341 4.90372 17.8341C4.58863 17.7362 4.31462 17.5371 4.12412 17.2677C3.92963 16.9927 3.86221 16.6083 3.72735 15.8395V15.8395C3.65612 15.4334 3.6205 15.2304 3.53746 15.0516C3.45572 14.8757 3.34063 14.7173 3.19857 14.5852C3.05424 14.451 2.87213 14.3544 2.50792 14.1611V14.1611C1.81845 13.7953 1.47371 13.6124 1.27222 13.3424C1.07487 13.078 0.970203 12.7559 0.974443 12.426C0.978772 12.0891 1.15016 11.7385 1.49293 11.0373V11.0373C1.674 10.6669 1.76454 10.4817 1.80241 10.2883C1.8397 10.0979 1.8397 9.9021 1.80241 9.71172C1.76454 9.51831 1.674 9.3331 1.49293 8.96269V8.96269C1.15016 8.26148 0.978772 7.91087 0.974443 7.57403C0.970203 7.24411 1.07487 6.92198 1.27222 6.65756C1.47371 6.3876 1.81845 6.20469 2.50792 5.83887V5.83887C2.87213 5.64563 3.05424 5.54901 3.19857 5.4148C3.34063 5.2827 3.45572 5.12429 3.53746 4.94836C3.6205 4.76962 3.65612 4.56657 3.72735 4.16047V4.16047C3.86221 3.3917 3.92963 3.00731 4.12412 2.73226C4.31462 2.46285 4.58863 2.26377 4.90372 2.16585C5.2254 2.06588 5.61181 2.12053 6.38463 2.22984V2.22984C6.79287 2.28759 6.99699 2.31646 7.19264 2.29271C7.38522 2.26934 7.57144 2.20884 7.74097 2.11455C7.91321 2.01876 8.06138 1.87542 8.35771 1.58875V1.58875Z" fill="url(#paint0_linear_287_1757)"/>
<path d="M6 10.3333L8.76923 13L14.5 7.5" stroke="white" stroke-width="1.5" stroke-linecap="round" stroke-linejoin="round"/>
<defs>
<linearGradient id="paint0_linear_287_1757" x1="-4.02062" y1="-3.80952" x2="29.8345" y2="21.706" gradientUnits="userSpaceOnUse">
<stop stop-color="#36D1DC"/>
<stop offset="1" stop-color="#5B86E5"/>
</linearGradient>
</defs>
</svg>
