<svg width="20" height="20" viewBox="0 0 20 20" fill="none" xmlns="http://www.w3.org/2000/svg">
<path d="M19.7557 0.244233C19.5994 0.088007 19.3875 0.000244141 19.1665 0.000244141C18.9455 0.000244141 18.7336 0.088007 18.5773 0.244233L9.99982 8.82173L1.42232 0.244233C1.26605 0.088007 1.05413 0.000244141 0.833155 0.000244141C0.612185 0.000244141 0.400262 0.088007 0.243989 0.244233V0.244233C0.0877628 0.400506 0 0.612429 0 0.833399C0 1.05437 0.0877628 1.26629 0.243989 1.42257L8.82149 10.0001L0.243989 18.5776C0.0877628 18.7338 0 18.9458 0 19.1667C0 19.3877 0.0877628 19.5996 0.243989 19.7559V19.7559C0.400262 19.9121 0.612185 19.9999 0.833155 19.9999C1.05413 19.9999 1.26605 19.9121 1.42232 19.7559L9.99982 11.1784L18.5773 19.7559C18.7336 19.9121 18.9455 19.9999 19.1665 19.9999C19.3875 19.9999 19.5994 19.9121 19.7557 19.7559C19.9119 19.5996 19.9996 19.3877 19.9996 19.1667C19.9996 18.9458 19.9119 18.7338 19.7557 18.5776L11.1782 10.0001L19.7557 1.42257C19.9119 1.26629 19.9996 1.05437 19.9996 0.833399C19.9996 0.612429 19.9119 0.400506 19.7557 0.244233V0.244233Z" fill="#03163F"/>
</svg>
