<svg width="20" height="20" viewBox="0 0 20 20" fill="none" xmlns="http://www.w3.org/2000/svg">
<g clip-path="url(#clip0_41_5456)">
<path d="M20 9.37248C19.8794 7.4225 19.1909 5.55041 18.0193 3.987C16.8477 2.4236 15.2441 1.23723 13.4064 0.574144C11.5687 -0.0889375 9.57705 -0.199741 7.6771 0.255394C5.77715 0.710529 4.05192 1.71171 2.71409 3.1355C1.37627 4.55929 0.484331 6.34345 0.148249 8.26803C-0.187833 10.1926 0.0466277 12.1735 0.822728 13.9664C1.59883 15.7593 2.88264 17.286 4.51589 18.3581C6.14914 19.4302 8.06043 20.001 10.0141 20H15.8333C16.938 19.9989 17.9972 19.5595 18.7784 18.7784C19.5595 17.9972 19.9989 16.938 20 15.8333V9.37248ZM18.3333 15.8333C18.3333 16.4964 18.0699 17.1322 17.6011 17.6011C17.1322 18.0699 16.4963 18.3333 15.8333 18.3333H10.0141C8.83824 18.3328 7.67567 18.0844 6.60221 17.6044C5.52876 17.1244 4.56853 16.4235 3.78413 15.5475C2.99594 14.6719 2.40407 13.6379 2.04821 12.5148C1.69235 11.3917 1.58071 10.2056 1.7208 9.03582C1.94199 7.19077 2.77096 5.4718 4.077 4.14992C5.38304 2.82803 7.09188 1.97841 8.93413 1.73498C9.29349 1.68994 9.65529 1.66712 10.0175 1.66665C11.9595 1.66135 13.8415 2.3399 15.3333 3.58331C16.2046 4.30743 16.9197 5.20094 17.4354 6.20967C17.9511 7.2184 18.2566 8.32135 18.3333 9.45165V15.8333Z" fill="url(#paint0_linear_41_5456)"/>
<path d="M6.66659 7.50004H9.99992C10.2209 7.50004 10.4329 7.41224 10.5892 7.25596C10.7455 7.09968 10.8333 6.88772 10.8333 6.66671C10.8333 6.44569 10.7455 6.23373 10.5892 6.07745C10.4329 5.92117 10.2209 5.83337 9.99992 5.83337H6.66659C6.44557 5.83337 6.23361 5.92117 6.07733 6.07745C5.92105 6.23373 5.83325 6.44569 5.83325 6.66671C5.83325 6.88772 5.92105 7.09968 6.07733 7.25596C6.23361 7.41224 6.44557 7.50004 6.66659 7.50004Z" fill="url(#paint1_linear_41_5456)"/>
<path d="M13.3332 9.16663H6.66658C6.44557 9.16663 6.23361 9.25442 6.07733 9.4107C5.92105 9.56698 5.83325 9.77894 5.83325 9.99996C5.83325 10.221 5.92105 10.4329 6.07733 10.5892C6.23361 10.7455 6.44557 10.8333 6.66658 10.8333H13.3332C13.5543 10.8333 13.7662 10.7455 13.9225 10.5892C14.0788 10.4329 14.1666 10.221 14.1666 9.99996C14.1666 9.77894 14.0788 9.56698 13.9225 9.4107C13.7662 9.25442 13.5543 9.16663 13.3332 9.16663Z" fill="url(#paint2_linear_41_5456)"/>
<path d="M13.3332 12.5H6.66658C6.44557 12.5 6.23361 12.5878 6.07733 12.7441C5.92105 12.9004 5.83325 13.1123 5.83325 13.3333C5.83325 13.5543 5.92105 13.7663 6.07733 13.9226C6.23361 14.0789 6.44557 14.1667 6.66658 14.1667H13.3332C13.5543 14.1667 13.7662 14.0789 13.9225 13.9226C14.0788 13.7663 14.1666 13.5543 14.1666 13.3333C14.1666 13.1123 14.0788 12.9004 13.9225 12.7441C13.7662 12.5878 13.5543 12.5 13.3332 12.5Z" fill="url(#paint3_linear_41_5456)"/>
</g>
<defs>
<linearGradient id="paint0_linear_41_5456" x1="-4.02179" y1="-3.83335" x2="29.8583" y2="21.6767" gradientUnits="userSpaceOnUse">
<stop stop-color="#36D1DC"/>
<stop offset="1" stop-color="#5B86E5"/>
</linearGradient>
<linearGradient id="paint1_linear_41_5456" x1="4.8281" y1="5.51591" x2="6.9994" y2="10.4253" gradientUnits="userSpaceOnUse">
<stop stop-color="#36D1DC"/>
<stop offset="1" stop-color="#5B86E5"/>
</linearGradient>
<linearGradient id="paint2_linear_41_5456" x1="4.158" y1="8.84917" x2="5.61315" y2="14.3327" gradientUnits="userSpaceOnUse">
<stop stop-color="#36D1DC"/>
<stop offset="1" stop-color="#5B86E5"/>
</linearGradient>
<linearGradient id="paint3_linear_41_5456" x1="4.158" y1="12.1825" x2="5.61316" y2="17.6661" gradientUnits="userSpaceOnUse">
<stop stop-color="#36D1DC"/>
<stop offset="1" stop-color="#5B86E5"/>
</linearGradient>
<clipPath id="clip0_41_5456">
<rect width="20" height="20" fill="white"/>
</clipPath>
</defs>
</svg>
