<svg width="20" height="20" viewBox="0 0 20 20" fill="none" xmlns="http://www.w3.org/2000/svg">
<g clip-path="url(#clip0_41_5463)">
<path d="M16.1107 12.2225C15.4807 12.223 14.8602 12.3768 14.3028 12.6706C13.7455 12.9645 13.268 13.3896 12.9116 13.9091L7.4874 11.46C7.87266 10.5297 7.87416 9.4847 7.49157 8.5533L12.9082 6.09163C13.4365 6.85559 14.221 7.40493 15.1196 7.64C16.0181 7.87507 16.9712 7.7803 17.8058 7.37288C18.6405 6.96546 19.3015 6.27238 19.6689 5.41935C20.0364 4.56632 20.0859 3.60986 19.8085 2.72344C19.5312 1.83702 18.9453 1.07938 18.1572 0.587925C17.3691 0.0964738 16.4309 -0.0962275 15.5129 0.0447755C14.5948 0.185779 13.7577 0.651146 13.1534 1.35646C12.5491 2.06178 12.2176 2.96033 12.2191 3.88913C12.2226 4.10896 12.2449 4.32809 12.2857 4.54413L6.5274 7.1608C5.97435 6.64265 5.28199 6.29733 4.53538 6.16726C3.78877 6.0372 3.02043 6.12806 2.32474 6.42868C1.62906 6.72929 1.03634 7.22658 0.6194 7.85943C0.202459 8.49229 -0.0205423 9.23315 -0.0222074 9.991C-0.0238725 10.7489 0.195871 11.4907 0.610027 12.1254C1.02418 12.7601 1.61471 13.2599 2.30907 13.5636C3.00342 13.8673 3.77136 13.9615 4.51854 13.8347C5.26571 13.708 5.95958 13.3657 6.5149 12.85L12.2882 15.4566C12.2481 15.6725 12.2261 15.8913 12.2224 16.1108C12.2222 16.8801 12.4502 17.6321 12.8775 18.2718C13.3048 18.9115 13.9122 19.4101 14.6229 19.7046C15.3336 19.9991 16.1156 20.0761 16.8701 19.9261C17.6246 19.7761 18.3177 19.4056 18.8616 18.8617C19.4056 18.3177 19.776 17.6247 19.9261 16.8702C20.0761 16.1157 19.999 15.3336 19.7045 14.6229C19.4101 13.9122 18.9115 13.3048 18.2718 12.8776C17.6321 12.4503 16.88 12.2223 16.1107 12.2225V12.2225ZM16.1107 1.66663C16.5503 1.66646 16.9801 1.79667 17.3457 2.04078C17.7113 2.28489 17.9963 2.63194 18.1647 3.03804C18.333 3.44413 18.3771 3.89103 18.2915 4.32221C18.2058 4.75338 17.9942 5.14947 17.6834 5.46038C17.3726 5.77129 16.9766 5.98304 16.5455 6.06886C16.1143 6.15469 15.6674 6.11072 15.2613 5.94253C14.8551 5.77434 14.5079 5.48948 14.2637 5.12397C14.0194 4.75846 13.8891 4.32873 13.8891 3.88913C13.8895 3.29997 14.1237 2.73505 14.5402 2.31837C14.9567 1.90169 15.5216 1.66729 16.1107 1.66663V1.66663ZM3.88907 12.2225C3.44947 12.2226 3.01969 12.0924 2.65409 11.8483C2.28849 11.6042 2.0035 11.2571 1.83515 10.8511C1.66681 10.445 1.62268 9.99806 1.70834 9.56689C1.794 9.13571 2.00561 8.73962 2.3164 8.42871C2.62719 8.11781 3.0232 7.90605 3.45434 7.82023C3.88549 7.73441 4.3324 7.77837 4.73856 7.94656C5.14472 8.11475 5.49187 8.39962 5.73612 8.76512C5.98037 9.13063 6.11074 9.56036 6.11074 9.99996C6.11008 10.5891 5.87582 11.1539 5.45935 11.5705C5.04287 11.9871 4.47817 12.2216 3.88907 12.2225ZM16.1107 18.3333C15.6712 18.3333 15.2415 18.203 14.876 17.9587C14.5105 17.7145 14.2256 17.3674 14.0574 16.9613C13.8892 16.5552 13.8452 16.1083 13.9309 15.6772C14.0167 15.2461 14.2284 14.8501 14.5392 14.5393C14.85 14.2284 15.246 14.0168 15.6772 13.931C16.1083 13.8452 16.5551 13.8893 16.9613 14.0575C17.3674 14.2257 17.7145 14.5106 17.9587 14.876C18.2029 15.2415 18.3332 15.6712 18.3332 16.1108C18.3328 16.7001 18.0985 17.2652 17.6818 17.6819C17.2651 18.0986 16.7 18.3329 16.1107 18.3333V18.3333Z" fill="url(#paint0_linear_41_5463)"/>
</g>
<defs>
<linearGradient id="paint0_linear_41_5463" x1="-4.04745" y1="-3.80997" x2="29.8197" y2="21.7426" gradientUnits="userSpaceOnUse">
<stop stop-color="#36D1DC"/>
<stop offset="1" stop-color="#5B86E5"/>
</linearGradient>
<clipPath id="clip0_41_5463">
<rect width="20" height="20" fill="white"/>
</clipPath>
</defs>
</svg>
