<svg width="20" height="20" viewBox="0 0 20 20" fill="none" xmlns="http://www.w3.org/2000/svg">
<g clip-path="url(#clip0_41_5452)">
<path d="M14.5835 1.59753C13.6451 1.61213 12.7272 1.87408 11.9224 2.35693C11.1177 2.83977 10.4546 3.52642 10.0001 4.34753C9.54566 3.52642 8.88257 2.83977 8.07782 2.35693C7.27308 1.87408 6.35517 1.61213 5.41679 1.59753C3.92091 1.66253 2.51155 2.31691 1.49661 3.41773C0.481677 4.51854 -0.0563308 5.97631 0.000128001 7.47253C0.000128001 11.2617 3.98846 15.4 7.33346 18.2059C8.08031 18.8335 9.02459 19.1776 10.0001 19.1776C10.9757 19.1776 11.9199 18.8335 12.6668 18.2059C16.0118 15.4 20.0001 11.2617 20.0001 7.47253C20.0566 5.97631 19.5186 4.51854 18.5036 3.41773C17.4887 2.31691 16.0793 1.66253 14.5835 1.59753ZM11.596 16.9309C11.1493 17.307 10.5841 17.5133 10.0001 17.5133C9.41616 17.5133 8.85097 17.307 8.40429 16.9309C4.12263 13.3384 1.66679 9.8917 1.66679 7.47253C1.60983 6.41813 1.9721 5.38398 2.6746 4.59562C3.37709 3.80726 4.36282 3.32866 5.41679 3.2642C6.47076 3.32866 7.45649 3.80726 8.15899 4.59562C8.86149 5.38398 9.22376 6.41813 9.16679 7.47253C9.16679 7.69355 9.25459 7.90551 9.41087 8.06179C9.56715 8.21807 9.77911 8.30587 10.0001 8.30587C10.2211 8.30587 10.4331 8.21807 10.5894 8.06179C10.7457 7.90551 10.8335 7.69355 10.8335 7.47253C10.7765 6.41813 11.1388 5.38398 11.8413 4.59562C12.5438 3.80726 13.5295 3.32866 14.5835 3.2642C15.6374 3.32866 16.6232 3.80726 17.3257 4.59562C18.0281 5.38398 18.3904 6.41813 18.3335 7.47253C18.3335 9.8917 15.8776 13.3384 11.596 16.9275V16.9309Z" fill="url(#paint0_linear_41_5452)"/>
</g>
<defs>
<linearGradient id="paint0_linear_41_5452" x1="-4.02615" y1="-1.75104" x2="26.5697" y2="24.4928" gradientUnits="userSpaceOnUse">
<stop stop-color="#36D1DC"/>
<stop offset="1" stop-color="#5B86E5"/>
</linearGradient>
<clipPath id="clip0_41_5452">
<rect width="20" height="20" fill="white"/>
</clipPath>
</defs>
</svg>
