<svg width="16" height="16" viewBox="0 0 16 16" fill="none" xmlns="http://www.w3.org/2000/svg">
<path d="M15.4126 0.587969C15.1736 0.346054 14.8762 0.169872 14.5492 0.0764462C14.2222 -0.0169797 13.8767 -0.0244919 13.5459 0.0546353L2.87926 2.3013C2.26498 2.38555 1.68641 2.63962 1.20873 3.03491C0.731039 3.4302 0.373201 3.95101 0.175509 4.53868C-0.0221834 5.12635 -0.0518764 5.75754 0.0897735 6.36118C0.231423 6.96481 0.53879 7.51691 0.977259 7.9553L2.12259 9.09997C2.18458 9.16194 2.23374 9.23553 2.26726 9.31652C2.30078 9.39751 2.31799 9.48432 2.31793 9.57197V11.684C2.3194 11.9809 2.38776 12.2737 2.51793 12.5406L2.51259 12.5453L2.52993 12.5626C2.72527 12.9554 3.04431 13.273 3.43793 13.4666L3.45526 13.484L3.45993 13.4786C3.72683 13.6088 4.01964 13.6772 4.31659 13.6786H6.42859C6.60529 13.6785 6.77482 13.7485 6.89992 13.8733L8.04459 15.018C8.35161 15.3284 8.71702 15.575 9.11978 15.7435C9.52253 15.912 9.95466 15.9992 10.3913 16C10.7551 15.9995 11.1164 15.9401 11.4613 15.824C12.0436 15.6328 12.5608 15.2826 12.9547 14.8131C13.3487 14.3436 13.6035 13.7733 13.6906 13.1666L15.9406 2.47664C16.0238 2.14306 16.0189 1.79358 15.9264 1.46248C15.8338 1.13137 15.6567 0.830015 15.4126 0.587969V0.587969ZM3.06659 8.15864L1.92059 7.01397C1.65374 6.75354 1.46671 6.4224 1.38145 6.05941C1.29619 5.69641 1.31625 5.31663 1.43926 4.96464C1.55852 4.60352 1.779 4.28425 2.07446 4.04481C2.36992 3.80537 2.72793 3.65583 3.10593 3.61397L13.6666 1.39064L3.64993 11.4086V9.57197C3.65093 9.30953 3.5999 9.04949 3.49977 8.80689C3.39965 8.5643 3.25241 8.34397 3.06659 8.15864V8.15864ZM12.3806 12.9386C12.3294 13.3069 12.1766 13.6535 11.9393 13.9397C11.7021 14.2259 11.3897 14.4403 11.0373 14.5589C10.685 14.6774 10.3066 14.6954 9.94455 14.6108C9.58253 14.5262 9.25127 14.3424 8.98792 14.08L7.84126 12.9333C7.65617 12.7472 7.43602 12.5996 7.19354 12.4992C6.95106 12.3987 6.69106 12.3473 6.42859 12.348H4.59192L14.6099 2.3333L12.3806 12.9386Z" fill="#F7F9FF"/>
</svg>
