<svg width="16" height="16" viewBox="0 0 16 16" fill="none" xmlns="http://www.w3.org/2000/svg">
<g clip-path="url(#clip0_41_5391)">
<path d="M8 10.6667C7.47258 10.6667 6.95701 10.5103 6.51848 10.2173C6.07995 9.92424 5.73815 9.50776 5.53632 9.02049C5.33449 8.53322 5.28168 7.99704 5.38457 7.47976C5.48747 6.96248 5.74144 6.48732 6.11438 6.11438C6.48732 5.74144 6.96248 5.48747 7.47976 5.38457C7.99704 5.28168 8.53322 5.33449 9.02049 5.53632C9.50776 5.73816 9.92424 6.07995 10.2173 6.51848C10.5103 6.95701 10.6667 7.47258 10.6667 8C10.6667 8.70724 10.3857 9.38552 9.88562 9.88562C9.38552 10.3857 8.70724 10.6667 8 10.6667ZM8 6.66667C7.73629 6.66667 7.47851 6.74487 7.25924 6.89137C7.03997 7.03788 6.86908 7.24612 6.76816 7.48976C6.66724 7.73339 6.64084 8.00148 6.69229 8.26012C6.74373 8.51876 6.87072 8.75634 7.05719 8.94281C7.24366 9.12928 7.48124 9.25627 7.73988 9.30771C7.99852 9.35916 8.26661 9.33276 8.51024 9.23184C8.75388 9.13092 8.96212 8.96003 9.10863 8.74076C9.25513 8.5215 9.33333 8.26371 9.33333 8C9.33333 7.64638 9.19286 7.30724 8.94281 7.05719C8.69276 6.80714 8.35362 6.66667 8 6.66667ZM12 15.3333C12 14.2725 11.5786 13.2551 10.8284 12.5049C10.0783 11.7548 9.06087 11.3333 8 11.3333C6.93913 11.3333 5.92172 11.7548 5.17157 12.5049C4.42143 13.2551 4 14.2725 4 15.3333C4 15.5101 4.07024 15.6797 4.19526 15.8047C4.32029 15.9298 4.48986 16 4.66667 16C4.84348 16 5.01305 15.9298 5.13807 15.8047C5.2631 15.6797 5.33333 15.5101 5.33333 15.3333C5.33333 14.6261 5.61428 13.9478 6.11438 13.4477C6.61448 12.9476 7.29276 12.6667 8 12.6667C8.70724 12.6667 9.38552 12.9476 9.88562 13.4477C10.3857 13.9478 10.6667 14.6261 10.6667 15.3333C10.6667 15.5101 10.7369 15.6797 10.8619 15.8047C10.987 15.9298 11.1565 16 11.3333 16C11.5101 16 11.6797 15.9298 11.8047 15.8047C11.9298 15.6797 12 15.5101 12 15.3333ZM12 5.33333C11.4726 5.33333 10.957 5.17694 10.5185 4.88392C10.0799 4.5909 9.73815 4.17443 9.53632 3.68716C9.33449 3.19989 9.28168 2.66371 9.38457 2.14643C9.48747 1.62914 9.74144 1.15399 10.1144 0.78105C10.4873 0.40811 10.9625 0.154134 11.4798 0.0512404C11.997 -0.0516535 12.5332 0.00115542 13.0205 0.202989C13.5078 0.404823 13.9242 0.746616 14.2173 1.18515C14.5103 1.62368 14.6667 2.13925 14.6667 2.66667C14.6667 3.37391 14.3857 4.05219 13.8856 4.55229C13.3855 5.05238 12.7072 5.33333 12 5.33333ZM12 1.33333C11.7363 1.33333 11.4785 1.41153 11.2592 1.55804C11.04 1.70455 10.8691 1.91279 10.7682 2.15642C10.6672 2.40006 10.6408 2.66815 10.6923 2.92679C10.7437 3.18543 10.8707 3.42301 11.0572 3.60948C11.2437 3.79595 11.4812 3.92293 11.7399 3.97438C11.9985 4.02583 12.2666 3.99942 12.5102 3.89851C12.7539 3.79759 12.9621 3.62669 13.1086 3.40743C13.2551 3.18816 13.3333 2.93038 13.3333 2.66667C13.3333 2.31305 13.1929 1.97391 12.9428 1.72386C12.6928 1.47381 12.3536 1.33333 12 1.33333ZM16 10C15.9989 8.93946 15.5772 7.92266 14.8273 7.17274C14.0773 6.42283 13.0605 6.00106 12 6C11.8232 6 11.6536 6.07024 11.5286 6.19526C11.4036 6.32029 11.3333 6.48986 11.3333 6.66667C11.3333 6.84348 11.4036 7.01305 11.5286 7.13807C11.6536 7.2631 11.8232 7.33333 12 7.33333C12.7072 7.33333 13.3855 7.61429 13.8856 8.11438C14.3857 8.61448 14.6667 9.29276 14.6667 10C14.6667 10.1768 14.7369 10.3464 14.8619 10.4714C14.987 10.5964 15.1565 10.6667 15.3333 10.6667C15.5101 10.6667 15.6797 10.5964 15.8047 10.4714C15.9298 10.3464 16 10.1768 16 10ZM4 5.33333C3.47258 5.33333 2.95701 5.17694 2.51848 4.88392C2.07995 4.5909 1.73816 4.17443 1.53632 3.68716C1.33449 3.19989 1.28168 2.66371 1.38457 2.14643C1.48747 1.62914 1.74144 1.15399 2.11438 0.78105C2.48732 0.40811 2.96248 0.154134 3.47976 0.0512404C3.99704 -0.0516535 4.53322 0.00115542 5.02049 0.202989C5.50776 0.404823 5.92424 0.746616 6.21725 1.18515C6.51027 1.62368 6.66667 2.13925 6.66667 2.66667C6.66667 3.37391 6.38572 4.05219 5.88562 4.55229C5.38552 5.05238 4.70724 5.33333 4 5.33333V5.33333ZM4 1.33333C3.73629 1.33333 3.47851 1.41153 3.25924 1.55804C3.03997 1.70455 2.86908 1.91279 2.76816 2.15642C2.66724 2.40006 2.64084 2.66815 2.69229 2.92679C2.74373 3.18543 2.87072 3.42301 3.05719 3.60948C3.24366 3.79595 3.48124 3.92293 3.73988 3.97438C3.99852 4.02583 4.26661 3.99942 4.51024 3.89851C4.75388 3.79759 4.96212 3.62669 5.10863 3.40743C5.25513 3.18816 5.33333 2.93038 5.33333 2.66667C5.33333 2.31305 5.19286 1.97391 4.94281 1.72386C4.69276 1.47381 4.35362 1.33333 4 1.33333ZM1.33333 10C1.33333 9.29276 1.61429 8.61448 2.11438 8.11438C2.61448 7.61429 3.29276 7.33333 4 7.33333C4.17681 7.33333 4.34638 7.2631 4.4714 7.13807C4.59643 7.01305 4.66667 6.84348 4.66667 6.66667C4.66667 6.48986 4.59643 6.32029 4.4714 6.19526C4.34638 6.07024 4.17681 6 4 6C2.93946 6.00106 1.92266 6.42283 1.17274 7.17274C0.422826 7.92266 0.00105895 8.93946 0 10C0 10.1768 0.0702379 10.3464 0.195262 10.4714C0.320286 10.5964 0.489856 10.6667 0.666667 10.6667C0.843478 10.6667 1.01305 10.5964 1.13807 10.4714C1.2631 10.3464 1.33333 10.1768 1.33333 10Z" fill="#98B1E7"/>
</g>
<defs>
<clipPath id="clip0_41_5391">
<rect width="16" height="16" fill="white"/>
</clipPath>
</defs>
</svg>
