<svg width="24" height="24" viewBox="0 0 24 24" fill="none" xmlns="http://www.w3.org/2000/svg">
<path d="M11.476 15C11.2108 15 10.9564 15.1054 10.7689 15.2929C10.5814 15.4804 10.476 15.7348 10.476 16V19C10.476 19.7956 10.1599 20.5587 9.59732 21.1213C9.03471 21.6839 8.27165 22 7.476 22H5C4.20435 22 3.44129 21.6839 2.87868 21.1213C2.31607 20.5587 2 19.7956 2 19V5C2 4.20435 2.31607 3.44129 2.87868 2.87868C3.44129 2.31607 4.20435 2 5 2H7.476C8.27165 2 9.03471 2.31607 9.59732 2.87868C10.1599 3.44129 10.476 4.20435 10.476 5V8C10.476 8.26522 10.5814 8.51957 10.7689 8.70711C10.9564 8.89464 11.2108 9 11.476 9C11.7412 9 11.9956 8.89464 12.1831 8.70711C12.3706 8.51957 12.476 8.26522 12.476 8V5C12.4744 3.6744 11.9471 2.40356 11.0098 1.46622C10.0724 0.528882 8.80159 0.00158786 7.476 0H5C3.6744 0.00158786 2.40356 0.528882 1.46622 1.46622C0.528882 2.40356 0.00158786 3.6744 0 5L0 19C0.00158786 20.3256 0.528882 21.5964 1.46622 22.5338C2.40356 23.4711 3.6744 23.9984 5 24H7.476C8.80159 23.9984 10.0724 23.4711 11.0098 22.5338C11.9471 21.5964 12.4744 20.3256 12.476 19V16C12.476 15.7348 12.3706 15.4804 12.1831 15.2929C11.9956 15.1054 11.7412 15 11.476 15Z" fill="#149AA4"/>
<path d="M22.867 9.87896L18.281 5.29296C18.1888 5.19745 18.0784 5.12127 17.9564 5.06886C17.8344 5.01645 17.7032 4.98886 17.5704 4.98771C17.4376 4.98655 17.3059 5.01186 17.183 5.06214C17.0602 5.11242 16.9485 5.18667 16.8546 5.28056C16.7607 5.37446 16.6865 5.48611 16.6362 5.60901C16.5859 5.7319 16.5606 5.86358 16.5618 5.99636C16.5629 6.12914 16.5905 6.26036 16.6429 6.38236C16.6953 6.50437 16.7715 6.61471 16.867 6.70696L21.129 10.97L6 11C5.73478 11 5.48043 11.1053 5.29289 11.2929C5.10536 11.4804 5 11.7347 5 12C5 12.2652 5.10536 12.5195 5.29289 12.7071C5.48043 12.8946 5.73478 13 6 13L21.188 12.969L16.865 17.293C16.7695 17.3852 16.6933 17.4956 16.6409 17.6176C16.5885 17.7396 16.5609 17.8708 16.5598 18.0036C16.5586 18.1363 16.5839 18.268 16.6342 18.3909C16.6845 18.5138 16.7587 18.6255 16.8526 18.7194C16.9465 18.8133 17.0582 18.8875 17.181 18.9378C17.3039 18.9881 17.4356 19.0134 17.5684 19.0122C17.7012 19.0111 17.8324 18.9835 17.9544 18.9311C18.0764 18.8787 18.1868 18.8025 18.279 18.707L22.865 14.121C23.4277 13.5586 23.744 12.7959 23.7444 12.0004C23.7447 11.2049 23.4292 10.4418 22.867 9.87896Z" fill="#149AA4"/>
</svg>
