<svg width="40" height="40" viewBox="0 0 40 40" fill="none" xmlns="http://www.w3.org/2000/svg">
<circle cx="20" cy="20" r="20" fill="url(#paint0_linear_41_5327)"/>
<path d="M19.8597 29.288C18.5157 29.288 17.2277 29.112 15.9957 28.76C14.7637 28.392 13.7717 27.92 13.0197 27.344L14.3397 24.416C15.0597 24.928 15.9077 25.352 16.8837 25.688C17.8757 26.008 18.8757 26.168 19.8837 26.168C20.6517 26.168 21.2677 26.096 21.7317 25.952C22.2117 25.792 22.5637 25.576 22.7877 25.304C23.0117 25.032 23.1237 24.72 23.1237 24.368C23.1237 23.92 22.9477 23.568 22.5957 23.312C22.2437 23.04 21.7797 22.824 21.2037 22.664C20.6277 22.488 19.9877 22.328 19.2837 22.184C18.5957 22.024 17.8997 21.832 17.1957 21.608C16.5077 21.384 15.8757 21.096 15.2997 20.744C14.7237 20.392 14.2517 19.928 13.8837 19.352C13.5317 18.776 13.3557 18.04 13.3557 17.144C13.3557 16.184 13.6117 15.312 14.1237 14.528C14.6517 13.728 15.4357 13.096 16.4757 12.632C17.5317 12.152 18.8517 11.912 20.4357 11.912C21.4917 11.912 22.5317 12.04 23.5557 12.296C24.5797 12.536 25.4837 12.904 26.2677 13.4L25.0677 16.352C24.2837 15.904 23.4997 15.576 22.7157 15.368C21.9317 15.144 21.1637 15.032 20.4117 15.032C19.6597 15.032 19.0437 15.12 18.5637 15.296C18.0837 15.472 17.7397 15.704 17.5317 15.992C17.3237 16.264 17.2197 16.584 17.2197 16.952C17.2197 17.384 17.3957 17.736 17.7477 18.008C18.0997 18.264 18.5637 18.472 19.1397 18.632C19.7157 18.792 20.3477 18.952 21.0357 19.112C21.7397 19.272 22.4357 19.456 23.1237 19.664C23.8277 19.872 24.4677 20.152 25.0437 20.504C25.6197 20.856 26.0837 21.32 26.4357 21.896C26.8037 22.472 26.9877 23.2 26.9877 24.08C26.9877 25.024 26.7237 25.888 26.1957 26.672C25.6677 27.456 24.8757 28.088 23.8197 28.568C22.7797 29.048 21.4597 29.288 19.8597 29.288Z" fill="white"/>
<defs>
<linearGradient id="paint0_linear_41_5327" x1="-8.04124" y1="-7.61905" x2="59.6691" y2="43.412" gradientUnits="userSpaceOnUse">
<stop stop-color="#36D1DC"/>
<stop offset="1" stop-color="#5B86E5"/>
</linearGradient>
</defs>
</svg>
