<svg width="24" height="24" viewBox="0 0 24 24" fill="none" xmlns="http://www.w3.org/2000/svg">
<g clip-path="url(#clip0_41_5314)">
<path d="M24 16V21C24 21.7957 23.6839 22.5587 23.1213 23.1213C22.5587 23.6839 21.7956 24 21 24H16C14.5971 23.9986 13.2192 23.6282 12.0046 22.9262C10.7901 22.2241 9.78145 21.215 9.08 20C9.83387 19.9946 10.5852 19.9115 11.322 19.752C11.8831 20.4537 12.595 21.02 13.4048 21.4092C14.2146 21.7983 15.1016 22.0003 16 22H21C21.2652 22 21.5196 21.8947 21.7071 21.7071C21.8946 21.5196 22 21.2652 22 21V16C21.9998 15.1012 21.7972 14.2141 21.4074 13.4042C21.0175 12.5944 20.4504 11.8828 19.748 11.322C19.9088 10.5853 19.9933 9.83402 20 9.08001C21.2149 9.78146 22.2241 10.7901 22.9261 12.0047C23.6282 13.2192 23.9986 14.5971 24 16ZM17.977 9.65101C18.0705 8.36265 17.8856 7.06925 17.4348 5.85871C16.9841 4.64816 16.278 3.54883 15.3646 2.63543C14.4512 1.72202 13.3518 1.01594 12.1413 0.565168C10.9308 0.114393 9.63736 -0.0705147 8.349 0.023011C6.06591 0.283743 3.95692 1.37019 2.41918 3.07775C0.881426 4.78532 0.0210271 6.99618 0 9.29401L0 14.334C0 16.866 1.507 18 3 18H8.7C10.9988 17.9802 13.211 17.1204 14.9198 15.5826C16.6286 14.0447 17.7159 11.935 17.977 9.65101V9.65101ZM13.95 4.05101C14.6599 4.76251 15.2088 5.61821 15.5593 6.5602C15.9099 7.50219 16.054 8.50849 15.982 9.51101C15.7686 11.2947 14.9105 12.9388 13.5693 14.1339C12.2282 15.3291 10.4964 15.9927 8.7 16H3C2.072 16 2 14.725 2 14.334V9.29401C2.00834 7.49838 2.67265 5.76771 3.86792 4.42769C5.06318 3.08766 6.70699 2.23068 8.49 2.01801C8.656 2.00601 8.822 2.00001 8.988 2.00001C9.90927 1.99915 10.8217 2.17985 11.6731 2.53177C12.5245 2.88369 13.2982 3.39994 13.95 4.05101Z" fill="#149AA4"/>
</g>
<defs>
<clipPath id="clip0_41_5314">
<rect width="24" height="24" fill="white"/>
</clipPath>
</defs>
</svg>
