<svg width="20" height="20" viewBox="0 0 20 20" fill="none" xmlns="http://www.w3.org/2000/svg">
<g clip-path="url(#clip0_41_5465)">
<path d="M9.99992 3.33333C10.9204 3.33333 11.6666 2.58714 11.6666 1.66667C11.6666 0.746192 10.9204 0 9.99992 0C9.07944 0 8.33325 0.746192 8.33325 1.66667C8.33325 2.58714 9.07944 3.33333 9.99992 3.33333Z" fill="#03163F"/>
<path d="M9.99992 11.6667C10.9204 11.6667 11.6666 10.9205 11.6666 10C11.6666 9.07957 10.9204 8.33337 9.99992 8.33337C9.07944 8.33337 8.33325 9.07957 8.33325 10C8.33325 10.9205 9.07944 11.6667 9.99992 11.6667Z" fill="#03163F"/>
<path d="M9.99992 20C10.9204 20 11.6666 19.2538 11.6666 18.3333C11.6666 17.4128 10.9204 16.6666 9.99992 16.6666C9.07944 16.6666 8.33325 17.4128 8.33325 18.3333C8.33325 19.2538 9.07944 20 9.99992 20Z" fill="#03163F"/>
</g>
<defs>
<clipPath id="clip0_41_5465">
<rect width="20" height="20" fill="white"/>
</clipPath>
</defs>
</svg>
