<svg width="17" height="17" viewBox="0 0 17 17" fill="none" xmlns="http://www.w3.org/2000/svg">
<g clip-path="url(#clip0_41_5081)">
<path d="M16.7404 15.542L12.7691 11.5626C13.8513 10.2364 14.3834 8.54403 14.2553 6.83568C14.1272 5.12733 13.3487 3.53366 12.0809 2.38432C10.813 1.23498 9.15278 0.617898 7.4436 0.660719C5.73442 0.70354 4.10705 1.40299 2.89809 2.61438C1.68914 3.82577 0.991108 5.45643 0.948373 7.16907C0.905638 8.8817 1.52147 10.5453 2.6685 11.8157C3.81552 13.0861 5.40597 13.8662 7.11088 13.9945C8.81579 14.1229 10.5047 13.5897 11.8283 12.5053L15.7996 16.4846C15.9251 16.6061 16.0932 16.6733 16.2676 16.6718C16.4421 16.6702 16.6089 16.6001 16.7323 16.4765C16.8556 16.3529 16.9256 16.1857 16.9271 16.0109C16.9287 15.8361 16.8616 15.6677 16.7404 15.542ZM7.62081 12.68C6.56811 12.68 5.53904 12.3672 4.66374 11.7811C3.78845 11.1951 3.10624 10.3622 2.70339 9.38762C2.30053 8.41308 2.19513 7.34072 2.4005 6.30616C2.60588 5.27159 3.1128 4.32128 3.85718 3.5754C4.60156 2.82952 5.54995 2.32157 6.58243 2.11578C7.61491 1.90999 8.6851 2.01561 9.65768 2.41928C10.6303 2.82295 11.4615 3.50653 12.0464 4.3836C12.6312 5.26066 12.9434 6.2918 12.9434 7.34664C12.9418 8.76064 12.3805 10.1163 11.3827 11.1161C10.3849 12.116 9.03196 12.6784 7.62081 12.68Z" fill="#35383D"/>
</g>
<defs>
<clipPath id="clip0_41_5081">
<rect width="15.9677" height="16" fill="white" transform="translate(0.967773 0.679993)"/>
</clipPath>
</defs>
</svg>
