<svg width="16" height="16" viewBox="0 0 16 16" fill="none" xmlns="http://www.w3.org/2000/svg">
<g clip-path="url(#clip0_41_4579)">
<path d="M15.8048 14.862L11.8254 10.8826C12.9099 9.55638 13.443 7.86404 13.3147 6.15569C13.1863 4.44733 12.4062 2.85367 11.1358 1.70432C9.86541 0.554984 8.20183 -0.0620951 6.4892 -0.0192739C4.77656 0.0235473 3.1459 0.722993 1.93451 1.93439C0.723115 3.14578 0.0236694 4.77644 -0.0191518 6.48907C-0.0619731 8.20171 0.555106 9.86529 1.70445 11.1357C2.85379 12.4061 4.44745 13.1862 6.15581 13.3145C7.86416 13.4429 9.5565 12.9097 10.8828 11.8253L14.8621 15.8047C14.9878 15.9261 15.1562 15.9933 15.331 15.9918C15.5058 15.9902 15.673 15.9201 15.7967 15.7965C15.9203 15.6729 15.9904 15.5057 15.9919 15.3309C15.9934 15.1561 15.9262 14.9877 15.8048 14.862ZM6.66677 12C5.61193 12 4.58079 11.6872 3.70373 11.1012C2.82666 10.5151 2.14308 9.68217 1.73941 8.70763C1.33574 7.73309 1.23012 6.66073 1.43591 5.62616C1.6417 4.5916 2.14965 3.64129 2.89553 2.89541C3.64141 2.14953 4.59172 1.64158 5.62629 1.43579C6.66085 1.23 7.73321 1.33562 8.70775 1.73929C9.68229 2.14295 10.5152 2.82654 11.1013 3.7036C11.6873 4.58067 12.0001 5.61181 12.0001 6.66665C11.9985 8.08065 11.4361 9.43628 10.4363 10.4361C9.4364 11.436 8.08077 11.9984 6.66677 12Z" fill="#7596DC"/>
</g>
<defs>
<clipPath id="clip0_41_4579">
<rect width="16" height="16" fill="white"/>
</clipPath>
</defs>
</svg>
