<svg width="20" height="20" viewBox="0 0 20 20" fill="none" xmlns="http://www.w3.org/2000/svg">
<g clip-path="url(#clip0_41_5469)">
<path d="M16.7809 20C16.4726 19.9992 16.1675 19.9372 15.8833 19.8178C15.5991 19.6984 15.3414 19.5238 15.125 19.3042L10 14.2092L4.87502 19.3075C4.54588 19.6414 4.12376 19.8685 3.6637 19.959C3.20364 20.0495 2.72698 19.9993 2.29586 19.815C1.86045 19.6399 1.48798 19.3375 1.22707 18.9474C0.966164 18.5573 0.828953 18.0976 0.833355 17.6283V4.16667C0.833355 3.0616 1.27234 2.00179 2.05374 1.22039C2.83515 0.438987 3.89495 0 5.00002 0L15 0C15.5472 0 16.089 0.107774 16.5945 0.317169C17.1001 0.526563 17.5594 0.833478 17.9463 1.22039C18.3332 1.6073 18.6401 2.06663 18.8495 2.57215C19.0589 3.07768 19.1667 3.61949 19.1667 4.16667V17.6283C19.1714 18.0972 19.0346 18.5567 18.7744 18.9467C18.5141 19.3368 18.1423 19.6393 17.7075 19.815C17.414 19.9377 17.099 20.0006 16.7809 20ZM5.00002 1.66667C4.33698 1.66667 3.7011 1.93006 3.23226 2.3989C2.76341 2.86774 2.50002 3.50363 2.50002 4.16667V17.6283C2.49972 17.7672 2.54058 17.903 2.61744 18.0187C2.6943 18.1343 2.80371 18.2246 2.93185 18.2781C3.05999 18.3316 3.20111 18.3459 3.33739 18.3193C3.47367 18.2926 3.59899 18.2262 3.69752 18.1283V18.1283L9.41669 12.4442C9.57283 12.289 9.78404 12.2018 10.0042 12.2018C10.2243 12.2018 10.4356 12.289 10.5917 12.4442L16.3042 18.1267C16.4027 18.2245 16.528 18.291 16.6643 18.3176C16.8006 18.3443 16.9417 18.33 17.0699 18.2764C17.198 18.2229 17.3074 18.1327 17.3843 18.017C17.4611 17.9014 17.502 17.7655 17.5017 17.6267V4.16667C17.5017 3.50363 17.2383 2.86774 16.7695 2.3989C16.3006 1.93006 15.6647 1.66667 15.0017 1.66667H5.00002Z" fill="#03163F"/>
</g>
<defs>
<clipPath id="clip0_41_5469">
<rect width="20" height="20" fill="white"/>
</clipPath>
</defs>
</svg>
