<svg width="16" height="16" viewBox="0 0 16 16" fill="none" xmlns="http://www.w3.org/2000/svg">
<g clip-path="url(#clip0_41_5395)">
<path d="M12.6667 16H3.33333C2.4496 15.9989 1.60237 15.6474 0.97748 15.0225C0.352588 14.3976 0.00105857 13.5504 0 12.6667L0 3.33333C0.00105857 2.4496 0.352588 1.60237 0.97748 0.97748C1.60237 0.352588 2.4496 0.00105857 3.33333 0L12.6667 0C13.5504 0.00105857 14.3976 0.352588 15.0225 0.97748C15.6474 1.60237 15.9989 2.4496 16 3.33333V12.6667C15.9989 13.5504 15.6474 14.3976 15.0225 15.0225C14.3976 15.6474 13.5504 15.9989 12.6667 16V16ZM3.33333 1.33333C2.8029 1.33333 2.29419 1.54405 1.91912 1.91912C1.54405 2.29419 1.33333 2.8029 1.33333 3.33333V12.6667C1.33333 13.1971 1.54405 13.7058 1.91912 14.0809C2.29419 14.456 2.8029 14.6667 3.33333 14.6667H12.6667C13.1971 14.6667 13.7058 14.456 14.0809 14.0809C14.456 13.7058 14.6667 13.1971 14.6667 12.6667V3.33333C14.6667 2.8029 14.456 2.29419 14.0809 1.91912C13.7058 1.54405 13.1971 1.33333 12.6667 1.33333H3.33333ZM6.228 11.3367C5.95008 11.3357 5.67734 11.2615 5.43733 11.1213C5.20023 10.9856 5.00344 10.7894 4.86709 10.5526C4.73074 10.3159 4.65973 10.0472 4.66133 9.774V6.226C4.66111 5.95276 4.73274 5.68427 4.86905 5.44746C5.00537 5.21066 5.20156 5.01386 5.43794 4.87683C5.67433 4.73979 5.9426 4.66733 6.21584 4.66672C6.48907 4.6661 6.75767 4.73736 6.99467 4.87333L10.5133 6.63C10.7577 6.76194 10.9624 6.95685 11.1062 7.19452C11.2499 7.4322 11.3274 7.70399 11.3308 7.98172C11.3341 8.25946 11.2631 8.53303 11.1251 8.77408C10.9871 9.01514 10.7872 9.2149 10.546 9.35267L6.962 11.144C6.73847 11.2715 6.48533 11.3379 6.228 11.3367V11.3367ZM6.21133 6.00333C6.17459 6.00332 6.13849 6.01298 6.10667 6.03133C6.07209 6.05056 6.0434 6.07884 6.02367 6.11313C6.00394 6.14743 5.99391 6.18644 5.99467 6.226V9.774C5.99489 9.81297 6.00525 9.85121 6.02473 9.88497C6.0442 9.91872 6.07212 9.94683 6.10574 9.96653C6.13936 9.98624 6.17753 9.99686 6.2165 9.99735C6.25547 9.99784 6.29389 9.98818 6.328 9.96933L9.912 8.17733C9.93869 8.15646 9.95992 8.12941 9.97385 8.09852C9.98779 8.06764 9.99401 8.03383 9.992 8C9.99284 7.96035 9.98277 7.92123 9.96291 7.8869C9.94304 7.85258 9.91413 7.82436 9.87933 7.80533L6.36333 6.04867C6.31749 6.02054 6.26509 6.00492 6.21133 6.00333V6.00333Z" fill="#98B1E7"/>
</g>
<defs>
<clipPath id="clip0_41_5395">
<rect width="16" height="16" fill="white"/>
</clipPath>
</defs>
</svg>
